HIERARCHY
ROOT Hips
{
	OFFSET 0.000000 71.427986 0.000000
	CHANNELS 6 Xposition Yposition Zposition Xrotation Yrotation Zrotation
	JOINT Pelvis
	{
		OFFSET 0.000000 0.000000 0.000000
		CHANNELS 3 Xrotation Yrotation Zrotation
		JOINT LeftUpLeg
		{
			OFFSET 6.797100 -2.508499 -1.318700
			CHANNELS 3 Xrotation Yrotation Zrotation
			JOINT LeftLeg
			{
				OFFSET 0.069008 -29.241863 0.690200
				CHANNELS 3 Xrotation Yrotation Zrotation
				JOINT LeftFoot
				{
					OFFSET -0.069008 -29.568123 -0.266800
					CHANNELS 3 Xrotation Yrotation Zrotation
					JOINT LeftToeBase
					{
						OFFSET 3.145500 -8.631000 16.059900
						CHANNELS 3 Xrotation Yrotation Zrotation
						End Site
						{
							OFFSET 0.000000 18.501587 0.000000
						}
					}
				}
			}
			JOINT Left_ShortSleeve
			{
				OFFSET 0.265923 -10.480953 1.153800
				CHANNELS 3 Xrotation Yrotation Zrotation
				End Site
				{
					OFFSET 1.725763 19.823879 0.000000
				}
			}
		}
		JOINT RightUpLeg
		{
			OFFSET -6.797100 -2.508499 -1.318700
			CHANNELS 3 Xrotation Yrotation Zrotation
			JOINT RightLeg
			{
				OFFSET -0.082453 -29.241932 0.688000
				CHANNELS 3 Xrotation Yrotation Zrotation
				JOINT RightFoot
				{
					OFFSET 0.082453 -29.568058 -0.264600
					CHANNELS 3 Xrotation Yrotation Zrotation
					JOINT RightToeBase
					{
						OFFSET -3.115300 -8.682800 16.113400
						CHANNELS 3 Xrotation Yrotation Zrotation
						End Site
						{
							OFFSET 0.000000 18.567114 0.000000
						}
					}
				}
			}
			JOINT Right_ShortSleeve
			{
				OFFSET -0.265923 -10.480953 1.153800
				CHANNELS 3 Xrotation Yrotation Zrotation
				End Site
				{
					OFFSET -1.725766 19.823910 0.000000
				}
			}
		}
	}
	JOINT Spine
	{
		OFFSET 0.000000 13.368103 0.470500
		CHANNELS 3 Xrotation Yrotation Zrotation
		JOINT Spine1
		{
			OFFSET 0.147000 13.837402 0.538800
			CHANNELS 3 Xrotation Yrotation Zrotation
			JOINT Spine2
			{
				OFFSET 0.168000 16.242897 -1.435500
				CHANNELS 3 Xrotation Yrotation Zrotation
				JOINT Neck
				{
					OFFSET 0.217200 18.631500 -1.679100
					CHANNELS 3 Xrotation Yrotation Zrotation
					JOINT Head
					{
						OFFSET 0.000000 6.599396 1.385900
						CHANNELS 3 Xrotation Yrotation Zrotation
						JOINT Hat
						{
							OFFSET -0.532200 27.220596 -10.096100
							CHANNELS 3 Xrotation Yrotation Zrotation
							End Site
							{
								OFFSET 0.000000 22.029861 0.000000
							}
						}
						JOINT HairD
						{
							OFFSET -10.777400 17.437393 -1.325900
							CHANNELS 3 Xrotation Yrotation Zrotation
							JOINT HairD1
							{
								OFFSET -3.290299 -11.051193 1.062200
								CHANNELS 3 Xrotation Yrotation Zrotation
								End Site
								{
									OFFSET 0.000000 11.579437 0.000000
								}
							}
						}
						JOINT HairB
						{
							OFFSET -10.777400 17.437393 1.467900
							CHANNELS 3 Xrotation Yrotation Zrotation
							JOINT HairB1
							{
								OFFSET -1.561200 -12.956299 3.590200
								CHANNELS 3 Xrotation Yrotation Zrotation
								End Site
								{
									OFFSET 0.000000 13.534866 0.000000
								}
							}
						}
						JOINT HairA
						{
							OFFSET 9.713100 17.437393 1.467900
							CHANNELS 3 Xrotation Yrotation Zrotation
							JOINT HairA1
							{
								OFFSET 1.561200 -12.956299 3.590200
								CHANNELS 3 Xrotation Yrotation Zrotation
								End Site
								{
									OFFSET 0.000000 13.534866 0.000000
								}
							}
						}
						JOINT HairC
						{
							OFFSET 9.713100 17.437393 -1.325900
							CHANNELS 3 Xrotation Yrotation Zrotation
							JOINT HairC1
							{
								OFFSET 3.290300 -11.051193 1.062200
								CHANNELS 3 Xrotation Yrotation Zrotation
								End Site
								{
									OFFSET 0.000000 11.579437 0.000000
								}
							}
						}
					}
				}
				JOINT LeftShoulder
				{
					OFFSET 5.101800 15.108002 -2.763700
					CHANNELS 3 Xrotation Yrotation Zrotation
					JOINT LeftArm
					{
						OFFSET 9.825497 2.506317 -1.597400
						CHANNELS 3 Xrotation Yrotation Zrotation
						JOINT LeftForeArm
						{
							OFFSET 21.966244 0.000000 0.000000
							CHANNELS 3 Xrotation Yrotation Zrotation
							JOINT LeftHand
							{
								OFFSET 33.879036 0.000000 0.000000
								CHANNELS 3 Xrotation Yrotation Zrotation
								JOINT LeftHandThumb1
								{
									OFFSET 6.715286 -2.359680 3.363841
									CHANNELS 3 Xrotation Yrotation Zrotation
									JOINT LeftHandThumb2
									{
										OFFSET 2.507072 -1.447464 1.447461
										CHANNELS 3 Xrotation Yrotation Zrotation
										JOINT LeftHandThumb3
										{
											OFFSET 2.898338 -1.673355 1.673357
											CHANNELS 3 Xrotation Yrotation Zrotation
											End Site
											{
												OFFSET -0.295959 3.727692 -0.131651
											}
										}
									}
								}
								JOINT LeftHandIndex1
								{
									OFFSET 14.190811 -0.254547 3.840278
									CHANNELS 3 Xrotation Yrotation Zrotation
									JOINT LeftHandIndex2
									{
										OFFSET 3.551727 0.000000 -0.000000
										CHANNELS 3 Xrotation Yrotation Zrotation
										JOINT LeftHandIndex3
										{
											OFFSET 2.894196 0.000000 0.000000
											CHANNELS 3 Xrotation Yrotation Zrotation
											End Site
											{
												OFFSET -1.000603 2.690872 0.366626
											}
										}
									}
								}
								JOINT LeftHandMiddle1
								{
									OFFSET 13.776489 0.000000 0.000000
									CHANNELS 3 Xrotation Yrotation Zrotation
									JOINT LeftHandMiddle2
									{
										OFFSET 3.438232 0.000000 0.000000
										CHANNELS 3 Xrotation Yrotation Zrotation
										JOINT LeftHandMiddle3
										{
											OFFSET 3.691551 0.000000 0.000000
											CHANNELS 3 Xrotation Yrotation Zrotation
											End Site
											{
												OFFSET -1.082298 3.499527 0.457670
											}
										}
									}
								}
								JOINT LeftHandRing1
								{
									OFFSET 13.966164 -0.268127 -3.067488
									CHANNELS 3 Xrotation Yrotation Zrotation
									JOINT LeftHandRing2
									{
										OFFSET 3.162567 0.000000 0.000000
										CHANNELS 3 Xrotation Yrotation Zrotation
										JOINT LeftHandRing3
										{
											OFFSET 3.324348 0.000000 0.000000
											CHANNELS 3 Xrotation Yrotation Zrotation
											End Site
											{
												OFFSET -0.861900 3.184998 0.405154
											}
										}
									}
								}
								JOINT LeftHandPinky1
								{
									OFFSET 13.131393 -0.168503 -5.746925
									CHANNELS 3 Xrotation Yrotation Zrotation
									JOINT LeftHandPinky2
									{
										OFFSET 2.849182 0.000000 0.000000
										CHANNELS 3 Xrotation Yrotation Zrotation
										JOINT LeftHandPinky3
										{
											OFFSET 2.805038 0.000000 0.000000
											CHANNELS 3 Xrotation Yrotation Zrotation
											End Site
											{
												OFFSET -0.882500 2.642609 0.325652
											}
										}
									}
								}
							}
							JOINT Left_Sleeve
							{
								OFFSET 6.592125 -0.646545 0.805568
								CHANNELS 3 Xrotation Yrotation Zrotation
								End Site
								{
									OFFSET -0.000179 20.275787 -0.000000
								}
							}
						}
					}
				}
				JOINT RightShoulder
				{
					OFFSET -5.731700 15.108002 -2.763700
					CHANNELS 3 Xrotation Yrotation Zrotation
					JOINT RightArm
					{
						OFFSET -9.825497 2.506317 -1.597400
						CHANNELS 3 Xrotation Yrotation Zrotation
						JOINT RightForeArm
						{
							OFFSET -21.966242 0.000000 0.000000
							CHANNELS 3 Xrotation Yrotation Zrotation
							JOINT RightHand
							{
								OFFSET -33.879032 0.000000 0.000000
								CHANNELS 3 Xrotation Yrotation Zrotation
								JOINT RightHandThumb1
								{
									OFFSET -6.715286 -2.359680 3.363841
									CHANNELS 3 Xrotation Yrotation Zrotation
									JOINT RightHandThumb2
									{
										OFFSET -2.507072 -1.447464 1.447461
										CHANNELS 3 Xrotation Yrotation Zrotation
										JOINT RightHandThumb3
										{
											OFFSET -2.898338 -1.673355 1.673357
											CHANNELS 3 Xrotation Yrotation Zrotation
											End Site
											{
												OFFSET 0.295959 3.727692 -0.131651
											}
										}
									}
								}
								JOINT RightHandIndex1
								{
									OFFSET -14.190811 -0.254547 3.840278
									CHANNELS 3 Xrotation Yrotation Zrotation
									JOINT RightHandIndex2
									{
										OFFSET -3.551727 0.000000 -0.000000
										CHANNELS 3 Xrotation Yrotation Zrotation
										JOINT RightHandIndex3
										{
											OFFSET -2.894196 0.000000 0.000000
											CHANNELS 3 Xrotation Yrotation Zrotation
											End Site
											{
												OFFSET 1.000603 2.690872 0.366626
											}
										}
									}
								}
								JOINT RightHandMiddle1
								{
									OFFSET -13.776489 0.000000 0.000000
									CHANNELS 3 Xrotation Yrotation Zrotation
									JOINT RightHandMiddle2
									{
										OFFSET -3.438232 0.000000 0.000000
										CHANNELS 3 Xrotation Yrotation Zrotation
										JOINT RightHandMiddle3
										{
											OFFSET -3.691551 0.000000 0.000000
											CHANNELS 3 Xrotation Yrotation Zrotation
											End Site
											{
												OFFSET 1.082298 3.499527 0.457670
											}
										}
									}
								}
								JOINT RightHandRing1
								{
									OFFSET -13.966164 -0.268127 -3.067488
									CHANNELS 3 Xrotation Yrotation Zrotation
									JOINT RightHandRing2
									{
										OFFSET -3.162567 0.000000 0.000000
										CHANNELS 3 Xrotation Yrotation Zrotation
										JOINT RightHandRing3
										{
											OFFSET -3.324348 0.000000 0.000000
											CHANNELS 3 Xrotation Yrotation Zrotation
											End Site
											{
												OFFSET 0.861900 3.184998 0.405154
											}
										}
									}
								}
								JOINT RightHandPinky1
								{
									OFFSET -13.131393 -0.168503 -5.746925
									CHANNELS 3 Xrotation Yrotation Zrotation
									JOINT RightHandPinky2
									{
										OFFSET -2.849182 0.000000 0.000000
										CHANNELS 3 Xrotation Yrotation Zrotation
										JOINT RightHandPinky3
										{
											OFFSET -2.805038 0.000000 0.000000
											CHANNELS 3 Xrotation Yrotation Zrotation
											End Site
											{
												OFFSET 0.882500 2.642609 0.325652
											}
										}
									}
								}
							}
							JOINT Right_Sleeve
							{
								OFFSET -6.592125 -0.646545 0.805568
								CHANNELS 3 Xrotation Yrotation Zrotation
								End Site
								{
									OFFSET 0.000179 20.275787 -0.000000
								}
							}
						}
					}
				}
				JOINT Bind_Right_JacketString
				{
					OFFSET -3.534800 11.969597 7.200700
					CHANNELS 3 Xrotation Yrotation Zrotation
					JOINT Bind_Right_JacketString1
					{
						OFFSET -0.319900 -6.102600 2.794100
						CHANNELS 3 Xrotation Yrotation Zrotation
						End Site
						{
							OFFSET 0.000000 6.719452 0.000000
						}
					}
				}
				JOINT Bind_Left_JacketString
				{
					OFFSET 2.904800 11.969597 7.200700
					CHANNELS 3 Xrotation Yrotation Zrotation
					JOINT Bind_Left_JacketString1
					{
						OFFSET 0.364800 -5.904503 3.186800
						CHANNELS 3 Xrotation Yrotation Zrotation
						End Site
						{
							OFFSET 0.000000 6.719513 0.000000
						}
					}
				}
				JOINT HairE
				{
					OFFSET 5.915200 17.612701 -11.592200
					CHANNELS 3 Xrotation Yrotation Zrotation
					JOINT HairE1
					{
						OFFSET 0.289200 -7.171898 -1.284500
						CHANNELS 3 Xrotation Yrotation Zrotation
						End Site
						{
							OFFSET 0.000000 7.291756 0.000000
						}
					}
				}
				JOINT HairF
				{
					OFFSET -0.864800 17.612701 -11.592200
					CHANNELS 3 Xrotation Yrotation Zrotation
					JOINT HairF1
					{
						OFFSET 0.000000 -14.087097 -2.127501
						CHANNELS 3 Xrotation Yrotation Zrotation
						End Site
						{
							OFFSET 0.000000 14.246841 0.000000
						}
					}
				}
				JOINT HairG
				{
					OFFSET -8.087700 17.612701 -11.592200
					CHANNELS 3 Xrotation Yrotation Zrotation
					JOINT HairG1
					{
						OFFSET -0.293600 -6.081398 -0.910100
						CHANNELS 3 Xrotation Yrotation Zrotation
						End Site
						{
							OFFSET 0.000000 6.156120 0.000000
						}
					}
				}
			}
		}
	}
	JOINT Pouch
	{
		OFFSET 0.000000 4.394501 10.847300
		CHANNELS 3 Xrotation Yrotation Zrotation
		End Site
		{
			OFFSET 0.000000 21.880577 0.000000
		}
	}
	JOINT Bag
	{
		OFFSET -13.229000 4.813004 -0.593300
		CHANNELS 3 Xrotation Yrotation Zrotation
		End Site
		{
			OFFSET 0.000000 21.880577 0.000000
		}
	}
	JOINT OccupyGuyFacialAnim_Joint
	{
		OFFSET 1.000000 -70.206398 -1.655000
		CHANNELS 3 Xrotation Yrotation Zrotation
		End Site
		{
			OFFSET 0.000000 21.880577 0.000000
		}
	}
}
MOTION
Frames: 4
Frame Time: 0.033333
-1.101063 71.185707 -0.360079 7.810018 0.131349 -6.135013 0.000000 -0.000000 -0.000001 -36.321331 7.288199 -0.575755 7.298732 5.871295 0.676413 25.869391 2.458103 1.443595 0.000000 0.000000 -0.000001 0.000000 0.000001 0.000000 20.947275 -11.450628 5.248092 50.668877 -8.002672 -0.662915 19.463951 -4.164565 -3.646187 0.000000 0.000001 0.000001 -0.000000 -0.000001 -0.000000 0.682770 9.723579 4.367555 0.546936 3.238250 0.500692 0.509186 3.259275 0.489522 -0.402068 -1.026306 -2.181909 -0.726519 -13.680663 2.399740 0.000001 0.000000 -0.000000 0.000001 0.000000 -0.000000 0.000001 0.000000 0.000000 0.000001 0.000000 0.000000 0.000001 0.000000 -0.000000 0.000001 0.000000 0.000000 0.000001 0.000000 -0.000000 0.000001 0.000000 -0.000000 0.000001 0.000000 -0.000000 0.695066 -3.799790 -7.499919 37.314116 -15.279941 -38.361669 -0.000076 -105.056226 -0.000067 4.164938 -2.725104 14.711565 -2.059404 0.844659 7.613040 10.105903 19.485242 3.288353 0.000001 -0.000000 0.000001 4.822623 5.130303 -85.745437 5.074481 5.799461 -82.359883 0.000003 0.000003 -0.000001 5.857296 8.201554 -91.155158 5.625199 5.846709 -87.783756 -0.000000 -0.000001 -0.000003 6.630518 8.156281 -97.358049 6.253527 5.837268 -93.950973 0.000001 0.000003 0.000001 12.462898 17.435772 -102.554198 6.679219 5.792365 -98.150959 0.000004 -0.000003 -0.000005 0.000003 0.000001 0.000002 1.113896 18.222907 6.139127 -16.850430 -0.993155 45.527978 0.000040 117.254459 -0.000033 1.287673 10.881645 -8.067488 -2.954866 1.146671 -6.997601 10.423566 -21.384480 -3.850422 -0.000001 0.000000 -0.000002 2.721791 -0.695486 85.068797 4.039811 -4.616131 82.374342 0.000000 0.000000 -0.000001 4.560011 -6.932826 90.389945 4.477595 -4.653706 87.787930 -0.000001 -0.000003 0.000001 5.203784 -6.905634 96.575036 4.977121 -4.646196 93.943453 0.000001 0.000000 0.000001 7.041293 -10.063741 101.326218 5.315542 -4.610517 98.135591 0.000002 -0.000001 -0.000001 0.000000 0.000000 0.000000 0.000001 -0.000000 -0.000000 0.000001 -0.000002 0.000000 0.000001 -0.000000 0.000000 0.000001 -0.000000 0.000000 0.000001 -0.000000 -0.000000 0.000001 -0.000002 0.000000 0.000001 -0.000000 0.000000 0.000001 -0.000000 0.000000 0.000001 -0.000000 -0.000000 0.000001 -0.000002 0.000000 0.000000 -0.000000 -0.000001 0.000000 -0.000000 -0.000001 0.000000 -0.000000 -0.000001 
-0.802193 70.343246 -0.612388 7.370092 1.430378 -4.298147 -0.000000 -0.000000 -0.000000 -29.847046 8.166261 -3.751652 12.558679 5.304458 0.461531 15.216575 0.333000 8.001728 -0.000000 0.000001 -0.000000 0.000002 0.000000 -0.000000 11.433122 -10.531553 1.947400 75.773026 -8.992498 -0.747943 25.061064 -6.587790 -8.956914 -0.000002 -0.000000 0.000000 0.000002 0.000002 -0.000000 0.748333 5.816254 2.536918 0.677812 2.541726 0.519282 0.648322 2.557172 0.533212 0.244384 -0.465828 -1.898941 0.083112 -10.863999 3.112693 0.000000 0.000000 0.000000 0.000000 0.000000 0.000000 0.000000 0.000000 0.000000 0.000000 0.000000 -0.000000 -0.000001 0.000000 -0.000000 0.000000 0.000000 -0.000000 -0.000001 0.000000 -0.000000 0.000000 0.000000 0.000000 0.000000 0.000000 0.000000 0.651746 -4.139989 -9.284873 33.200276 -16.801050 -37.860258 0.000054 -102.411310 0.000036 3.606205 -5.024905 15.656520 -2.059405 0.844662 7.613053 10.105915 19.485241 3.288328 0.000007 0.000003 -0.000001 4.685000 5.145528 -84.221922 4.920768 5.776860 -80.835767 -0.000000 0.000001 -0.000002 5.700514 8.197810 -89.624253 5.469984 5.838664 -86.259313 0.000000 0.000001 -0.000003 6.475267 8.173016 -95.827383 6.098362 5.845859 -92.426571 -0.000002 -0.000000 -0.000000 12.213639 17.391388 -100.971260 6.525129 5.812248 -96.626768 0.000003 -0.000000 0.000003 0.000000 0.000002 0.000001 0.871276 16.827768 7.700291 -7.269442 3.807805 44.391735 -0.000054 109.566452 0.000060 4.622623 13.624329 -11.063307 -2.954870 1.146676 -6.997593 10.423574 -21.384482 -3.850428 -0.000002 -0.000003 0.000000 2.636307 -0.740978 83.550221 3.917611 -4.598178 80.853000 0.000001 0.000001 0.000000 4.435453 -6.927234 88.863473 4.354230 -4.647328 86.266430 -0.000000 0.000001 -0.000002 5.080296 -6.917079 95.048667 4.853751 -4.653037 92.421947 0.000003 0.000003 0.000001 6.892635 -10.058445 99.789658 5.193014 -4.626312 96.614235 0.000002 0.000003 0.000004 0.000000 0.000001 0.000003 0.000000 0.000000 -0.000000 0.000000 0.000001 -0.000000 0.000000 0.000000 -0.000000 0.000000 0.000000 -0.000000 0.000000 0.000000 -0.000000 0.000000 0.000001 -0.000000 0.000000 0.000000 -0.000000 0.000000 0.000000 -0.000000 0.000000 0.000000 -0.000000 0.000000 0.000001 -0.000000 -0.000000 -0.000000 -0.000000 -0.000000 -0.000000 -0.000000 -0.000000 -0.000000 -0.000000 
-0.592079 69.040672 -1.286345 8.436752 0.508927 -1.497258 0.000000 -0.000000 0.000000 -28.795897 8.815090 -6.742282 24.973711 6.111264 0.498853 -3.270268 -0.613019 9.645539 0.000000 -0.000000 0.000000 -0.000001 -0.000001 0.000001 -4.127195 -6.124592 -2.325482 99.335355 -9.611442 -0.762379 31.394292 -7.930599 -11.713222 -0.000002 -0.000001 -0.000000 -0.000000 0.000000 -0.000000 0.426007 3.185882 -0.039902 0.634709 1.778301 0.175989 0.616537 1.790329 0.195931 -0.414543 0.195989 -1.559208 -0.003732 -7.266160 3.361354 -0.000000 0.000000 0.000000 -0.000000 0.000000 0.000000 -0.000000 0.000000 0.000000 -0.000000 0.000000 -0.000000 -0.000001 0.000000 -0.000000 -0.000000 0.000000 -0.000000 -0.000001 0.000000 -0.000000 -0.000000 0.000000 0.000000 -0.000000 0.000000 0.000000 0.613630 -3.684205 -13.020047 26.750680 -17.858581 -35.083789 -0.000003 -98.315382 -0.000015 4.194570 -7.701158 18.010200 -2.059405 0.844648 7.613038 10.105912 19.485234 3.288336 0.000002 0.000001 0.000000 4.460100 5.153401 -81.810947 4.678893 5.732818 -78.423904 -0.000000 0.000000 0.000002 5.452927 8.183416 -87.201483 5.224975 5.817562 -83.846788 0.000002 0.000001 -0.000003 6.228769 8.191105 -93.404708 5.852483 5.851076 -90.013902 0.000001 0.000001 0.000000 11.853862 17.329827 -98.475646 6.280303 5.835353 -94.214352 0.000002 -0.000001 0.000001 0.000000 0.000003 0.000002 0.555308 15.085033 10.354019 1.733999 7.977585 43.092066 0.000265 100.968071 -0.000282 7.726799 16.089568 -13.688120 -2.954848 1.146680 -6.997586 10.423568 -21.384463 -3.850416 -0.000005 -0.000001 -0.000000 2.484862 -0.790802 81.148426 3.725319 -4.563164 78.445481 -0.000000 -0.000001 0.000000 4.238914 -6.911645 86.447710 4.159452 -4.630541 83.858447 -0.000001 0.000001 -0.000002 4.884350 -6.928530 92.632883 4.658301 -4.657163 90.013922 0.000001 -0.000001 -0.000002 6.666996 -10.050285 97.359108 4.998402 -4.644685 94.206313 -0.000003 -0.000003 -0.000000 0.000001 -0.000000 0.000000 -0.000001 0.000000 -0.000000 -0.000001 -0.000001 0.000000 -0.000001 0.000000 -0.000000 -0.000001 0.000000 -0.000000 -0.000001 0.000000 -0.000000 -0.000001 -0.000001 0.000000 -0.000001 0.000000 -0.000000 -0.000001 0.000000 -0.000000 -0.000001 0.000000 -0.000000 -0.000001 -0.000001 0.000000 0.000000 -0.000000 0.000000 0.000000 -0.000000 0.000000 0.000000 -0.000000 0.000000 
-0.567042 67.881363 -2.676256 9.346088 -1.004741 0.695425 -0.000000 0.000000 -0.000000 -26.593096 8.718541 -9.381261 32.258727 9.109695 0.631769 -15.494228 -0.159449 9.002959 0.000000 0.000000 0.000000 -0.000001 -0.000001 0.000001 -24.224984 1.783818 -2.937441 117.661442 -8.755410 -0.422519 36.036549 -4.110040 -12.401544 0.000000 0.000000 0.000000 -0.000001 0.000000 -0.000000 0.929697 0.974139 -1.821336 1.146487 0.713823 -0.135704 1.139424 0.734522 -0.119612 -1.447433 1.002529 -1.303186 -1.329790 -3.209346 3.728386 0.000001 -0.000000 0.000000 0.000001 -0.000000 0.000000 0.000001 -0.000000 0.000000 0.000001 -0.000000 0.000000 0.000000 -0.000000 0.000000 0.000001 -0.000000 0.000000 0.000000 -0.000000 0.000000 0.000001 -0.000000 0.000000 0.000001 -0.000000 0.000000 0.625679 -2.982217 -16.072099 15.082695 -21.272945 -33.139006 -0.000570 -93.814731 -0.000686 5.988883 -9.710512 19.076179 -2.059420 0.844647 7.613022 10.105910 19.485232 3.288346 0.000003 0.000001 -0.000000 4.168192 5.140512 -78.742191 4.374084 5.662178 -75.354301 0.000001 0.000001 -0.000003 5.138361 8.150004 -84.117639 4.914739 5.775899 -80.776071 0.000004 -0.000001 -0.000003 5.914223 8.199151 -90.320530 5.539533 5.842800 -86.942680 -0.000003 0.000000 -0.000001 11.429655 17.254777 -95.308255 5.967605 5.849905 -91.143144 -0.000000 -0.000001 0.000003 0.000000 -0.000000 -0.000000 0.318276 15.124426 12.560448 6.892094 7.123716 44.525928 0.034011 91.795065 -0.034053 7.709763 21.149968 -14.251488 -2.954856 1.146681 -6.997598 10.423568 -21.384486 -3.850427 -0.000000 -0.000001 -0.000001 2.277351 -0.826289 78.092387 3.482954 -4.506997 75.381123 -0.000000 -0.000001 -0.000002 3.989323 -6.879809 83.372725 3.912836 -4.597431 80.793399 0.000001 0.000001 -0.000002 4.634474 -6.931214 89.557529 4.409522 -4.650590 86.948534 -0.000001 0.000000 0.000000 6.388870 -10.035271 94.266234 4.749815 -4.656241 91.140992 -0.000004 0.000000 -0.000001 0.000004 0.000001 0.000002 -0.000001 0.000000 -0.000000 -0.000001 0.000000 -0.000000 -0.000001 0.000000 -0.000000 -0.000001 0.000000 -0.000000 -0.000001 0.000000 -0.000000 -0.000001 0.000000 -0.000000 -0.000001 0.000000 -0.000000 -0.000001 0.000000 -0.000000 -0.000001 0.000000 -0.000000 -0.000001 0.000000 -0.000000 -0.000000 0.000000 -0.000000 -0.000000 0.000000 -0.000000 -0.000000 0.000000 -0.000000 
